<?xml version="1.0" encoding="UTF-8" standalone="no"?><svg xmlns="http://www.w3.org/2000/svg" xmlns:xlink="http://www.w3.org/1999/xlink" fill="#000000" height="384.5" preserveAspectRatio="xMidYMid meet" version="1" viewBox="10.0 -0.7 386.0 384.5" width="386" zoomAndPan="magnify"><g fill="#d1b3b3" id="change1_1"><path d="m157.99 184.38l15.38-16.18c9.02-9.01 24.19-5.89 24.19-5.89l45.03 6.17 22.81-22.32c12.01-11.8 22.86 6.25 18.14 12.48l-11.71 13.61 48.5 8.98 16.46-19.19c17.59-21.03 30.68-2.08 22.74 9.07l-10.63 13.46 72.86 9.5c62.65-60.29 88.23-85.3 104.71-70.44 16.59 14.95-12.76 44.76-69.83 103.55l10.36 75.07 15.27-12.72c9.01-7.51 25.01 4.53 8.49 20.2l-21 19.8 8.86 49.14 13.12-10.09c11.59-9.23 25.65 2.98 9.99 19.71l-20.84 21c-0.86 0.64 6.8 43.1 6.8 43.1 4.72 20.81-7.02 28.41-7.02 28.41l-14.31 12.48-54.38-153.61c-4.51-13.51-15.93-28.19-35.01-26.45-10.08 1.07-35.55 18.27-38.99 22.35l-58.97 56.71c-1.51 1.07 9.07 73.72 9.07 73.72 0 2.14-18.7 26.66-18.7 26.66l-37.37-66.51-18.45 8.58 10.79-16.8-67.28-37.98 25.23-18.45c12.01 2.79 75 9.87 76.29 9.23 0 0 51.3-50.88 54.23-53.95 16.95-17.81 22.65-24.47 25.22-33.26 2.58-8.81-1.81-21.71-28.41-38.04-36.69-22.53-151.64-61.1-151.64-61.1z" fill="inherit" transform="translate(-147.07 -109.45)"/></g></svg>