<?xml version="1.0" encoding="UTF-8" standalone="no"?><svg xmlns="http://www.w3.org/2000/svg" xmlns:xlink="http://www.w3.org/1999/xlink" fill="#000000" height="33.7" preserveAspectRatio="xMidYMid meet" version="1" viewBox="0.0 0.0 122.0 33.7" width="122" zoomAndPan="magnify"><g data-name="Layer 2"><g data-name="Layer 1" fill="#d1b3b3" id="change1_1"><path d="M24.18,33.66l0-2c1.8,0,3.62-.1,5.42-.26l.18,2C27.9,33.56,26,33.65,24.18,33.66Zm-3.56-.06c-1.86-.08-3.74-.24-5.57-.47l.25-2c1.78.22,3.6.38,5.4.45ZM33.29,33,33,31c1.78-.25,3.58-.57,5.34-1L38.79,32C37,32.41,35.13,32.74,33.29,33Zm-21.77-.4c-1.87-.34-3.7-.75-5.45-1.24l.53-1.92c1.69.46,3.47.87,5.28,1.2Z"/><path d="M52.85,27.36,52,25.54c2-.91,3.93-1.95,6-3.17l1,1.72C56.89,25.35,54.86,26.42,52.85,27.36Z"/><path d="M72,15.88l-1-1.71c1.85-1.13,3.57-2.11,5.25-3l.93,1.77C75.51,13.81,73.83,14.77,72,15.88Zm8.67-4.69-.85-1.81C81.67,8.52,83.5,7.75,85.42,7l.71,1.87C84.25,9.61,82.47,10.35,80.68,11.19ZM89.84,7.6l-.61-1.9C91.08,5.1,93,4.53,95,4L95.53,6C93.57,6.46,91.65,7,89.84,7.6Zm9.54-2.54L99,3.1c1.9-.41,3.9-.79,5.93-1.14l.33,2C103.21,4.27,101.25,4.65,99.38,5.06Zm9.74-1.73-.28-2c1.93-.27,3.94-.52,6-.73l.21,2C113,2.82,111,3.07,109.12,3.33Z"/><path d="M42.24,31.17l-.52-1.93c.86-.23,1.73-.48,2.61-.76,1.11-.34,2.19-.7,3.22-1.09l.7,1.88c-1.07.39-2.18.77-3.33,1.12C44,30.67,43.13,30.93,42.24,31.17ZM2.65,30.29c-1.57-.55-2.48-1-2.65-1.05l.84-1.81c.1,0,1,.44,2.48,1Zm60.6-8.79-1.08-1.69c1-.61,1.92-1.24,2.89-1.87l2.51-1.64L68.66,18c-.84.53-1.67,1.08-2.5,1.61S64.21,20.88,63.25,21.5ZM119,2.23l-.17-2,3-.23L122,2Z"/></g></g></svg>