<?xml version="1.0" encoding="UTF-8" standalone="no"?><svg xmlns="http://www.w3.org/2000/svg" xmlns:xlink="http://www.w3.org/1999/xlink" fill="#000000" height="28.6" preserveAspectRatio="xMidYMid meet" version="1" viewBox="0.0 0.0 123.9 28.6" width="123.9" zoomAndPan="magnify"><g data-name="Layer 2"><g data-name="Layer 1" fill="#d1b3b3" id="change1_1"><path d="M76.64,23.75h-.07a49.21,49.21,0,0,1-6.2-.36l.25-2a50.13,50.13,0,0,0,5.88.34h.09v1l.12,1Zm4.11-.13-.11-2c1.89-.11,3.92-.29,6-.55l.23,2C84.75,23.33,82.68,23.51,80.75,23.62ZM91,22.51l-.3-2c1.91-.29,3.93-.64,6-1l.38,2C95,21.87,93,22.22,91,22.51Zm10.11-1.86-.42-2c1.92-.41,3.92-.86,5.93-1.35l.47,1.94C105.07,19.77,103.06,20.24,101.12,20.65Zm10-2.38-.51-1.94c2-.51,3.94-1,5.87-1.61l.56,1.92C115.08,17.2,113.09,17.75,111.11,18.27Z"/><path d="M62.25,27l-.69-1.87a19.61,19.61,0,0,0,5.92-3.42l1.29,1.53A21.47,21.47,0,0,1,62.25,27Z"/><path d="M46.39,27.6a32.16,32.16,0,0,1-5.55-2.16l.88-1.79a30.42,30.42,0,0,0,5.21,2Zm-8.94-4c-1.49-.88-3.09-1.93-4.9-3.21l1.16-1.63C35.47,20,37,21,38.48,21.88Z"/><path d="M21.23,12.08c-1.86-1.3-3.54-2.42-5.15-3.41L17.13,7c1.64,1,3.36,2.15,5.25,3.48ZM12.45,6.6A50.81,50.81,0,0,0,6.89,4l.73-1.86a55.58,55.58,0,0,1,5.77,2.65Z"/><path d="M53.25,28.57a23.39,23.39,0,0,1-3-.19l.25-2a24.47,24.47,0,0,0,6.23-.06l.26,2A27,27,0,0,1,53.25,28.57Zm13-6a21.48,21.48,0,0,1-3-1.06,19,19,0,0,1-3-1.66l1.12-1.65A17.62,17.62,0,0,0,64,19.71a19.09,19.09,0,0,0,2.74,1Zm6.19-3.44-1.68-1.09a13.81,13.81,0,0,0,1.49-3A11.42,11.42,0,0,0,72.87,12l2,.12a13.49,13.49,0,0,1-.75,3.65A16.17,16.17,0,0,1,72.42,19.16Zm-42.95-1-2.32-1.73-2.5-1.86L25.84,13l2.5,1.87,2.32,1.72Zm27.26-1.84a7.55,7.55,0,0,1-1-3.59,8.51,8.51,0,0,1,.73-3.54L58.3,10a6.4,6.4,0,0,0-.57,2.7,5.64,5.64,0,0,0,.74,2.66ZM121,15.47l-.58-1.91c1.69-.52,2.71-.86,2.87-.91l.63,1.9C123.74,14.6,122.7,14.94,121,15.47ZM72,7.71a7.09,7.09,0,0,0-1.94-2.32,5.37,5.37,0,0,0-2-1l.51-1.93a7.37,7.37,0,0,1,2.71,1.36,9.23,9.23,0,0,1,2.47,3Zm-11.4-1L59.29,5.29a12.51,12.51,0,0,1,2.87-2,11.1,11.1,0,0,1,2.75-.95l.38,2a9.2,9.2,0,0,0-2.24.78A10.68,10.68,0,0,0,60.63,6.76ZM3,2.71C2,2.42,1,2.17,0,2L.43,0c1,.22,2.06.49,3.09.78Z"/></g></g></svg>